<svg xmlns="http://www.w3.org/2000/svg" width="640" height="640" style="background: white; font-family: sans-serif;">
  <defs>
    <style>
      .grid { stroke: #eee; stroke-width: 1; }
      .pin { fill: #1976d2; }
      .trace { fill: none; stroke-width: 4; stroke-linecap: round; stroke-linejoin: round; opacity: 0.7; }
      .comp-body { fill: rgba(100, 100, 100, 0.1); stroke: #666; stroke-width: 1; }
      .text { font-size: 10px; fill: #333; text-anchor: middle; dominant-baseline: middle; }
      .pin-label { font-size: 8px; fill: #666; }
    </style>
  </defs>
<line x1="20" y1="20" x2="20" y2="620" class="grid" /><line x1="40" y1="20" x2="40" y2="620" class="grid" /><line x1="60" y1="20" x2="60" y2="620" class="grid" /><line x1="80" y1="20" x2="80" y2="620" class="grid" /><line x1="100" y1="20" x2="100" y2="620" class="grid" /><line x1="120" y1="20" x2="120" y2="620" class="grid" /><line x1="140" y1="20" x2="140" y2="620" class="grid" /><line x1="160" y1="20" x2="160" y2="620" class="grid" /><line x1="180" y1="20" x2="180" y2="620" class="grid" /><line x1="200" y1="20" x2="200" y2="620" class="grid" /><line x1="220" y1="20" x2="220" y2="620" class="grid" /><line x1="240" y1="20" x2="240" y2="620" class="grid" /><line x1="260" y1="20" x2="260" y2="620" class="grid" /><line x1="280" y1="20" x2="280" y2="620" class="grid" /><line x1="300" y1="20" x2="300" y2="620" class="grid" /><line x1="320" y1="20" x2="320" y2="620" class="grid" /><line x1="340" y1="20" x2="340" y2="620" class="grid" /><line x1="360" y1="20" x2="360" y2="620" class="grid" /><line x1="380" y1="20" x2="380" y2="620" class="grid" /><line x1="400" y1="20" x2="400" y2="620" class="grid" /><line x1="420" y1="20" x2="420" y2="620" class="grid" /><line x1="440" y1="20" x2="440" y2="620" class="grid" /><line x1="460" y1="20" x2="460" y2="620" class="grid" /><line x1="480" y1="20" x2="480" y2="620" class="grid" /><line x1="500" y1="20" x2="500" y2="620" class="grid" /><line x1="520" y1="20" x2="520" y2="620" class="grid" /><line x1="540" y1="20" x2="540" y2="620" class="grid" /><line x1="560" y1="20" x2="560" y2="620" class="grid" /><line x1="580" y1="20" x2="580" y2="620" class="grid" /><line x1="600" y1="20" x2="600" y2="620" class="grid" /><line x1="620" y1="20" x2="620" y2="620" class="grid" /><line x1="20" y1="20" x2="620" y2="20" class="grid" /><line x1="20" y1="40" x2="620" y2="40" class="grid" /><line x1="20" y1="60" x2="620" y2="60" class="grid" /><line x1="20" y1="80" x2="620" y2="80" class="grid" /><line x1="20" y1="100" x2="620" y2="100" class="grid" /><line x1="20" y1="120" x2="620" y2="120" class="grid" /><line x1="20" y1="140" x2="620" y2="140" class="grid" /><line x1="20" y1="160" x2="620" y2="160" class="grid" /><line x1="20" y1="180" x2="620" y2="180" class="grid" /><line x1="20" y1="200" x2="620" y2="200" class="grid" /><line x1="20" y1="220" x2="620" y2="220" class="grid" /><line x1="20" y1="240" x2="620" y2="240" class="grid" /><line x1="20" y1="260" x2="620" y2="260" class="grid" /><line x1="20" y1="280" x2="620" y2="280" class="grid" /><line x1="20" y1="300" x2="620" y2="300" class="grid" /><line x1="20" y1="320" x2="620" y2="320" class="grid" /><line x1="20" y1="340" x2="620" y2="340" class="grid" /><line x1="20" y1="360" x2="620" y2="360" class="grid" /><line x1="20" y1="380" x2="620" y2="380" class="grid" /><line x1="20" y1="400" x2="620" y2="400" class="grid" /><line x1="20" y1="420" x2="620" y2="420" class="grid" /><line x1="20" y1="440" x2="620" y2="440" class="grid" /><line x1="20" y1="460" x2="620" y2="460" class="grid" /><line x1="20" y1="480" x2="620" y2="480" class="grid" /><line x1="20" y1="500" x2="620" y2="500" class="grid" /><line x1="20" y1="520" x2="620" y2="520" class="grid" /><line x1="20" y1="540" x2="620" y2="540" class="grid" /><line x1="20" y1="560" x2="620" y2="560" class="grid" /><line x1="20" y1="580" x2="620" y2="580" class="grid" /><line x1="20" y1="600" x2="620" y2="600" class="grid" /><line x1="20" y1="620" x2="620" y2="620" class="grid" /><text x="230" y="260" class="text" style="font-weight: bold;">MCU1</text><circle cx="110" cy="110" r="4" class="pin" /><circle cx="110" cy="130" r="4" class="pin" /><circle cx="110" cy="150" r="4" class="pin" /><circle cx="110" cy="170" r="4" class="pin" /><circle cx="110" cy="190" r="4" class="pin" /><circle cx="110" cy="210" r="4" class="pin" /><circle cx="110" cy="230" r="4" class="pin" /><circle cx="110" cy="250" r="4" class="pin" /><circle cx="110" cy="270" r="4" class="pin" /><circle cx="110" cy="290" r="4" class="pin" /><circle cx="110" cy="310" r="4" class="pin" /><circle cx="110" cy="330" r="4" class="pin" /><circle cx="110" cy="350" r="4" class="pin" /><circle cx="110" cy="370" r="4" class="pin" /><circle cx="110" cy="390" r="4" class="pin" /><circle cx="330" cy="390" r="4" class="pin" /><circle cx="330" cy="370" r="4" class="pin" /><circle cx="330" cy="350" r="4" class="pin" /><circle cx="330" cy="330" r="4" class="pin" /><circle cx="330" cy="310" r="4" class="pin" /><circle cx="330" cy="290" r="4" class="pin" /><circle cx="330" cy="270" r="4" class="pin" /><circle cx="330" cy="250" r="4" class="pin" /><circle cx="330" cy="230" r="4" class="pin" /><circle cx="330" cy="210" r="4" class="pin" /><circle cx="330" cy="190" r="4" class="pin" /><circle cx="330" cy="170" r="4" class="pin" /><circle cx="330" cy="150" r="4" class="pin" /><circle cx="330" cy="130" r="4" class="pin" /><circle cx="330" cy="110" r="4" class="pin" /><text x="420" y="120" class="text" style="font-weight: bold;">R1</text><circle cx="390" cy="110" r="4" class="pin" /><circle cx="430" cy="110" r="4" class="pin" /><text x="480" y="120" class="text" style="font-weight: bold;">T1</text><circle cx="470" cy="90" r="4" class="pin" /><circle cx="470" cy="110" r="4" class="pin" /><circle cx="470" cy="130" r="4" class="pin" /><text x="560" y="140" class="text" style="font-weight: bold;">BZ1</text><circle cx="530" cy="130" r="4" class="pin" /><circle cx="570" cy="130" r="4" class="pin" /><text x="420" y="220" class="text" style="font-weight: bold;">R2</text><circle cx="390" cy="210" r="4" class="pin" /><circle cx="430" cy="210" r="4" class="pin" /><text x="480" y="220" class="text" style="font-weight: bold;">T2</text><circle cx="470" cy="190" r="4" class="pin" /><circle cx="470" cy="210" r="4" class="pin" /><circle cx="470" cy="230" r="4" class="pin" /><text x="560" y="240" class="text" style="font-weight: bold;">BZ2</text><circle cx="530" cy="230" r="4" class="pin" /><circle cx="570" cy="230" r="4" class="pin" /><path d="M 330 110 L 350 110 M 350 110 L 370 110 M 370 110 L 390 110 " class="trace" stroke="#e91e63" /><path d="M 430 110 L 450 110 M 450 110 L 470 110 " class="trace" stroke="#9c27b0" /><path d="M 470 130 L 490 130 M 490 130 L 510 130 M 510 130 L 530 130 " class="trace" stroke="#2196f3" /><path d="M 330 130 L 350 130 M 350 130 L 350 150 M 350 150 L 350 170 M 350 170 L 350 190 M 350 190 L 350 210 M 350 210 L 370 210 M 370 210 L 390 210 " class="trace" stroke="#00bcd4" /><path d="M 430 210 L 450 210 M 450 210 L 470 210 " class="trace" stroke="#4caf50" /><path d="M 470 230 L 490 230 M 490 230 L 510 230 M 510 230 L 530 230 " class="trace" stroke="#ff9800" /><path d="M 330 230 L 350 230 M 350 230 L 370 230 M 370 230 L 390 230 M 390 230 L 410 230 M 410 230 L 410 210 M 410 210 L 410 190 M 410 190 L 430 190 M 430 190 L 450 190 M 450 190 L 470 190 M 410 190 L 410 170 M 410 170 L 410 150 M 410 150 L 410 130 M 410 130 L 410 110 M 410 110 L 410 90 M 410 90 L 430 90 M 430 90 L 450 90 M 450 90 L 470 90 " class="trace" stroke="#795548" /><path d="M 110 370 L 130 370 M 130 370 L 130 390 M 130 390 L 130 410 M 130 410 L 150 410 M 150 410 L 170 410 M 170 410 L 190 410 M 190 410 L 210 410 M 210 410 L 230 410 M 230 410 L 250 410 M 250 410 L 270 410 M 270 410 L 290 410 M 290 410 L 310 410 M 310 410 L 330 410 M 330 410 L 350 410 M 350 410 L 350 390 M 350 390 L 350 370 M 350 370 L 350 350 M 350 350 L 350 330 M 350 330 L 350 310 M 350 310 L 350 290 M 350 290 L 350 270 M 350 270 L 350 250 M 350 250 L 370 250 M 370 250 L 390 250 M 390 250 L 410 250 M 410 250 L 430 250 M 430 250 L 450 250 M 450 250 L 470 250 M 470 250 L 490 250 M 490 250 L 510 250 M 510 250 L 530 250 M 530 250 L 550 250 M 550 250 L 550 230 M 550 230 L 570 230 M 570 230 L 570 210 M 570 210 L 570 190 M 570 190 L 570 170 M 570 170 L 570 150 M 570 150 L 570 130 " class="trace" stroke="#e91e63" /></svg>