<svg xmlns="http://www.w3.org/2000/svg" width="280" height="280" style="background: white; font-family: sans-serif;">
  <defs>
    <style>
      .grid { stroke: #eee; stroke-width: 1; }
      .pin { fill: #1976d2; }
      .trace { fill: none; stroke-width: 4; stroke-linecap: round; stroke-linejoin: round; opacity: 0.7; }
      .comp-body { fill: rgba(100, 100, 100, 0.1); stroke: #666; stroke-width: 1; }
      .text { font-size: 10px; fill: #333; text-anchor: middle; dominant-baseline: middle; }
      .pin-label { font-size: 8px; fill: #666; }
    </style>
  </defs>
<line x1="20" y1="20" x2="20" y2="260" class="grid" /><line x1="40" y1="20" x2="40" y2="260" class="grid" /><line x1="60" y1="20" x2="60" y2="260" class="grid" /><line x1="80" y1="20" x2="80" y2="260" class="grid" /><line x1="100" y1="20" x2="100" y2="260" class="grid" /><line x1="120" y1="20" x2="120" y2="260" class="grid" /><line x1="140" y1="20" x2="140" y2="260" class="grid" /><line x1="160" y1="20" x2="160" y2="260" class="grid" /><line x1="180" y1="20" x2="180" y2="260" class="grid" /><line x1="200" y1="20" x2="200" y2="260" class="grid" /><line x1="220" y1="20" x2="220" y2="260" class="grid" /><line x1="240" y1="20" x2="240" y2="260" class="grid" /><line x1="260" y1="20" x2="260" y2="260" class="grid" /><line x1="20" y1="20" x2="260" y2="20" class="grid" /><line x1="20" y1="40" x2="260" y2="40" class="grid" /><line x1="20" y1="60" x2="260" y2="60" class="grid" /><line x1="20" y1="80" x2="260" y2="80" class="grid" /><line x1="20" y1="100" x2="260" y2="100" class="grid" /><line x1="20" y1="120" x2="260" y2="120" class="grid" /><line x1="20" y1="140" x2="260" y2="140" class="grid" /><line x1="20" y1="160" x2="260" y2="160" class="grid" /><line x1="20" y1="180" x2="260" y2="180" class="grid" /><line x1="20" y1="200" x2="260" y2="200" class="grid" /><line x1="20" y1="220" x2="260" y2="220" class="grid" /><line x1="20" y1="240" x2="260" y2="240" class="grid" /><line x1="20" y1="260" x2="260" y2="260" class="grid" /><text x="150" y="150" class="text" style="font-weight: bold;">U1</text><circle cx="110" cy="110" r="4" class="pin" /><circle cx="110" cy="130" r="4" class="pin" /><circle cx="110" cy="150" r="4" class="pin" /><circle cx="110" cy="170" r="4" class="pin" /><circle cx="170" cy="170" r="4" class="pin" /><circle cx="170" cy="150" r="4" class="pin" /><circle cx="170" cy="130" r="4" class="pin" /><circle cx="170" cy="110" r="4" class="pin" /><text x="150" y="60" class="text" style="font-weight: bold;">J1</text><circle cx="130" cy="50" r="4" class="pin" /><circle cx="150" cy="50" r="4" class="pin" /><text x="240" y="120" class="text" style="font-weight: bold;">R1</text><circle cx="210" cy="110" r="4" class="pin" /><circle cx="250" cy="110" r="4" class="pin" /><text x="240" y="140" class="text" style="font-weight: bold;">R2</text><circle cx="250" cy="130" r="4" class="pin" /><circle cx="210" cy="130" r="4" class="pin" /><text x="220" y="180" class="text" style="font-weight: bold;">C1</text><circle cx="210" cy="150" r="4" class="pin" /><circle cx="210" cy="190" r="4" class="pin" /><text x="80" y="160" class="text" style="font-weight: bold;">R3</text><circle cx="90" cy="150" r="4" class="pin" /><circle cx="50" cy="150" r="4" class="pin" /><text x="40" y="170" class="text" style="font-weight: bold;">LED1</text><circle cx="30" cy="150" r="4" class="pin" /><circle cx="30" cy="170" r="4" class="pin" /><path d="M 130 50 L 70 50 M 70 50 L 70 110 M 70 110 L 110 110 M 70 110 L 70 230 M 70 230 L 210 230 M 210 230 L 210 190 M 70 230 L 30 230 M 30 230 L 30 170 " class="trace" stroke="#e91e63" /><path d="M 150 50 L 230 50 M 230 50 L 230 90 M 230 90 L 210 90 M 210 90 L 210 110 " class="trace" stroke="#9c27b0" /><line x1="230" y1="90" x2="170" y2="110" 
                stroke="#4caf50" stroke-width="3" stroke-dasharray="5,5" opacity="1" /><line x1="170" y1="110" x2="110" y2="170" 
                stroke="#4caf50" stroke-width="3" stroke-dasharray="5,5" opacity="1" /><path d="M 170 130 L 170 90 M 170 90 L 250 90 M 250 90 L 250 110 M 250 110 L 250 130 " class="trace" stroke="#2196f3" /><path d="M 110 130 L 90 130 M 90 130 L 90 210 M 90 210 L 210 210 M 210 210 L 210 150 M 210 150 L 170 150 M 210 150 L 210 130 " class="trace" stroke="#00bcd4" /><path d="M 110 150 L 90 150 " class="trace" stroke="#4caf50" /><path d="M 50 150 L 30 150 " class="trace" stroke="#ff9800" /></svg>