<svg xmlns="http://www.w3.org/2000/svg" width="440" height="440" style="background: white; font-family: sans-serif;">
  <defs>
    <style>
      .grid { stroke: #eee; stroke-width: 1; }
      .pin { fill: #1976d2; }
      .trace { fill: none; stroke-width: 4; stroke-linecap: round; stroke-linejoin: round; opacity: 0.7; }
      .comp-body { fill: rgba(100, 100, 100, 0.1); stroke: #666; stroke-width: 1; }
      .text { font-size: 10px; fill: #333; text-anchor: middle; dominant-baseline: middle; }
      .pin-label { font-size: 8px; fill: #666; }
    </style>
  </defs>
<line x1="20" y1="20" x2="20" y2="420" class="grid" /><line x1="40" y1="20" x2="40" y2="420" class="grid" /><line x1="60" y1="20" x2="60" y2="420" class="grid" /><line x1="80" y1="20" x2="80" y2="420" class="grid" /><line x1="100" y1="20" x2="100" y2="420" class="grid" /><line x1="120" y1="20" x2="120" y2="420" class="grid" /><line x1="140" y1="20" x2="140" y2="420" class="grid" /><line x1="160" y1="20" x2="160" y2="420" class="grid" /><line x1="180" y1="20" x2="180" y2="420" class="grid" /><line x1="200" y1="20" x2="200" y2="420" class="grid" /><line x1="220" y1="20" x2="220" y2="420" class="grid" /><line x1="240" y1="20" x2="240" y2="420" class="grid" /><line x1="260" y1="20" x2="260" y2="420" class="grid" /><line x1="280" y1="20" x2="280" y2="420" class="grid" /><line x1="300" y1="20" x2="300" y2="420" class="grid" /><line x1="320" y1="20" x2="320" y2="420" class="grid" /><line x1="340" y1="20" x2="340" y2="420" class="grid" /><line x1="360" y1="20" x2="360" y2="420" class="grid" /><line x1="380" y1="20" x2="380" y2="420" class="grid" /><line x1="400" y1="20" x2="400" y2="420" class="grid" /><line x1="420" y1="20" x2="420" y2="420" class="grid" /><line x1="20" y1="20" x2="420" y2="20" class="grid" /><line x1="20" y1="40" x2="420" y2="40" class="grid" /><line x1="20" y1="60" x2="420" y2="60" class="grid" /><line x1="20" y1="80" x2="420" y2="80" class="grid" /><line x1="20" y1="100" x2="420" y2="100" class="grid" /><line x1="20" y1="120" x2="420" y2="120" class="grid" /><line x1="20" y1="140" x2="420" y2="140" class="grid" /><line x1="20" y1="160" x2="420" y2="160" class="grid" /><line x1="20" y1="180" x2="420" y2="180" class="grid" /><line x1="20" y1="200" x2="420" y2="200" class="grid" /><line x1="20" y1="220" x2="420" y2="220" class="grid" /><line x1="20" y1="240" x2="420" y2="240" class="grid" /><line x1="20" y1="260" x2="420" y2="260" class="grid" /><line x1="20" y1="280" x2="420" y2="280" class="grid" /><line x1="20" y1="300" x2="420" y2="300" class="grid" /><line x1="20" y1="320" x2="420" y2="320" class="grid" /><line x1="20" y1="340" x2="420" y2="340" class="grid" /><line x1="20" y1="360" x2="420" y2="360" class="grid" /><line x1="20" y1="380" x2="420" y2="380" class="grid" /><line x1="20" y1="400" x2="420" y2="400" class="grid" /><line x1="20" y1="420" x2="420" y2="420" class="grid" /><text x="250" y="250" class="text" style="font-weight: bold;">U1</text><circle cx="210" cy="210" r="4" class="pin" /><circle cx="210" cy="230" r="4" class="pin" /><circle cx="210" cy="250" r="4" class="pin" /><circle cx="210" cy="270" r="4" class="pin" /><circle cx="270" cy="270" r="4" class="pin" /><circle cx="270" cy="250" r="4" class="pin" /><circle cx="270" cy="230" r="4" class="pin" /><circle cx="270" cy="210" r="4" class="pin" /><text x="250" y="120" class="text" style="font-weight: bold;">J1</text><circle cx="210" cy="110" r="4" class="pin" /><circle cx="270" cy="110" r="4" class="pin" /><text x="340" y="220" class="text" style="font-weight: bold;">R1</text><circle cx="310" cy="210" r="4" class="pin" /><circle cx="350" cy="210" r="4" class="pin" /><text x="340" y="240" class="text" style="font-weight: bold;">R2</text><circle cx="350" cy="230" r="4" class="pin" /><circle cx="310" cy="230" r="4" class="pin" /><text x="320" y="280" class="text" style="font-weight: bold;">C1</text><circle cx="310" cy="250" r="4" class="pin" /><circle cx="310" cy="290" r="4" class="pin" /><text x="160" y="260" class="text" style="font-weight: bold;">R3</text><circle cx="170" cy="250" r="4" class="pin" /><circle cx="130" cy="250" r="4" class="pin" /><text x="100" y="270" class="text" style="font-weight: bold;">LED1</text><circle cx="90" cy="250" r="4" class="pin" /><circle cx="90" cy="270" r="4" class="pin" /><path d="M 210 110 L 110 110 M 110 110 L 110 210 M 110 210 L 210 210 M 110 210 L 110 370 M 110 370 L 310 370 M 310 370 L 310 290 M 110 270 L 90 270 " class="trace" stroke="#e91e63" /><path d="M 270 110 L 390 110 M 390 110 L 390 30 M 390 30 L 310 30 M 310 30 L 310 210 M 390 110 L 390 210 M 390 210 L 270 210 " class="trace" stroke="#9c27b0" /><line x1="270" y1="210" x2="210" y2="270" 
                stroke="#4caf50" stroke-width="3" stroke-dasharray="5,5" opacity="1" /><path d="M 270 230 L 290 230 M 290 230 L 290 90 M 290 90 L 350 90 M 350 90 L 350 210 M 350 210 L 350 230 " class="trace" stroke="#2196f3" /><path d="M 210 230 L 190 230 M 190 230 L 190 330 M 190 330 L 330 330 M 330 330 L 330 250 M 330 250 L 270 250 M 330 250 L 310 250 M 330 250 L 330 230 M 330 230 L 310 230 " class="trace" stroke="#00bcd4" /><path d="M 210 250 L 170 250 " class="trace" stroke="#4caf50" /><path d="M 130 250 L 90 250 " class="trace" stroke="#ff9800" /></svg>