<svg xmlns="http://www.w3.org/2000/svg" width="280" height="280" style="background: white; font-family: sans-serif;">
  <defs>
    <style>
      .grid { stroke: #eee; stroke-width: 1; }
      .pin { fill: #1976d2; }
      .trace { fill: none; stroke-width: 4; stroke-linecap: round; stroke-linejoin: round; opacity: 0.7; }
      .comp-body { fill: rgba(100, 100, 100, 0.1); stroke: #666; stroke-width: 1; }
      .text { font-size: 10px; fill: #333; text-anchor: middle; dominant-baseline: middle; }
      .pin-label { font-size: 8px; fill: #666; }
    </style>
  </defs>
<line x1="20" y1="20" x2="20" y2="260" class="grid" /><line x1="40" y1="20" x2="40" y2="260" class="grid" /><line x1="60" y1="20" x2="60" y2="260" class="grid" /><line x1="80" y1="20" x2="80" y2="260" class="grid" /><line x1="100" y1="20" x2="100" y2="260" class="grid" /><line x1="120" y1="20" x2="120" y2="260" class="grid" /><line x1="140" y1="20" x2="140" y2="260" class="grid" /><line x1="160" y1="20" x2="160" y2="260" class="grid" /><line x1="180" y1="20" x2="180" y2="260" class="grid" /><line x1="200" y1="20" x2="200" y2="260" class="grid" /><line x1="220" y1="20" x2="220" y2="260" class="grid" /><line x1="240" y1="20" x2="240" y2="260" class="grid" /><line x1="260" y1="20" x2="260" y2="260" class="grid" /><line x1="20" y1="20" x2="260" y2="20" class="grid" /><line x1="20" y1="40" x2="260" y2="40" class="grid" /><line x1="20" y1="60" x2="260" y2="60" class="grid" /><line x1="20" y1="80" x2="260" y2="80" class="grid" /><line x1="20" y1="100" x2="260" y2="100" class="grid" /><line x1="20" y1="120" x2="260" y2="120" class="grid" /><line x1="20" y1="140" x2="260" y2="140" class="grid" /><line x1="20" y1="160" x2="260" y2="160" class="grid" /><line x1="20" y1="180" x2="260" y2="180" class="grid" /><line x1="20" y1="200" x2="260" y2="200" class="grid" /><line x1="20" y1="220" x2="260" y2="220" class="grid" /><line x1="20" y1="240" x2="260" y2="240" class="grid" /><line x1="20" y1="260" x2="260" y2="260" class="grid" /><text x="150" y="150" class="text" style="font-weight: bold;">U1</text><circle cx="110" cy="110" r="4" class="pin" /><circle cx="110" cy="130" r="4" class="pin" /><circle cx="110" cy="150" r="4" class="pin" /><circle cx="110" cy="170" r="4" class="pin" /><circle cx="170" cy="170" r="4" class="pin" /><circle cx="170" cy="150" r="4" class="pin" /><circle cx="170" cy="130" r="4" class="pin" /><circle cx="170" cy="110" r="4" class="pin" /><text x="40" y="50" class="text" style="font-weight: bold;">J1</text><circle cx="30" cy="30" r="4" class="pin" /><circle cx="30" cy="50" r="4" class="pin" /><text x="220" y="140" class="text" style="font-weight: bold;">R1</text><circle cx="210" cy="110" r="4" class="pin" /><circle cx="210" cy="150" r="4" class="pin" /><text x="240" y="180" class="text" style="font-weight: bold;">R2</text><circle cx="230" cy="150" r="4" class="pin" /><circle cx="230" cy="190" r="4" class="pin" /><text x="260" y="210" class="text" style="font-weight: bold;">C1</text><circle cx="250" cy="190" r="4" class="pin" /><circle cx="250" cy="210" r="4" class="pin" /><text x="200" y="190" class="text" style="font-weight: bold;">C2</text><circle cx="190" cy="170" r="4" class="pin" /><circle cx="190" cy="190" r="4" class="pin" /><path d="M 30 30 L 30 10 M 30 10 L 210 10 M 210 10 L 210 110 M 210 110 L 170 110 M 110 170 L 110 190 M 110 190 L 90 190 M 90 190 L 90 10 M 90 10 L 110 10 " class="trace" stroke="#e91e63" /><path d="M 30 50 L 30 230 M 30 70 L 110 70 M 110 70 L 110 110 M 30 230 L 250 230 M 250 230 L 250 210 M 250 230 L 190 230 M 190 230 L 190 190 " class="trace" stroke="#9c27b0" /><path d="M 170 130 L 210 130 M 210 130 L 210 150 M 210 150 L 230 150 " class="trace" stroke="#2196f3" /><path d="M 250 190 L 230 190 M 230 190 L 230 210 M 230 210 L 150 210 M 150 210 L 150 150 M 150 150 L 170 150 " class="trace" stroke="#00bcd4" /><line x1="110" y1="130" x2="170" y2="150" 
                stroke="#4caf50" stroke-width="3" stroke-dasharray="5,5" opacity="1" /><path d="M 170 170 L 190 170 " class="trace" stroke="#4caf50" /></svg>