<svg xmlns="http://www.w3.org/2000/svg" width="360" height="360" style="background: white; font-family: sans-serif;">
  <defs>
    <style>
      .grid { stroke: #eee; stroke-width: 1; }
      .pin { fill: #1976d2; }
      .trace { fill: none; stroke-width: 4; stroke-linecap: round; stroke-linejoin: round; opacity: 0.7; }
      .comp-body { fill: rgba(100, 100, 100, 0.1); stroke: #666; stroke-width: 1; }
      .text { font-size: 10px; fill: #333; text-anchor: middle; dominant-baseline: middle; }
      .pin-label { font-size: 8px; fill: #666; }
    </style>
  </defs>
<line x1="20" y1="20" x2="20" y2="340" class="grid" /><line x1="40" y1="20" x2="40" y2="340" class="grid" /><line x1="60" y1="20" x2="60" y2="340" class="grid" /><line x1="80" y1="20" x2="80" y2="340" class="grid" /><line x1="100" y1="20" x2="100" y2="340" class="grid" /><line x1="120" y1="20" x2="120" y2="340" class="grid" /><line x1="140" y1="20" x2="140" y2="340" class="grid" /><line x1="160" y1="20" x2="160" y2="340" class="grid" /><line x1="180" y1="20" x2="180" y2="340" class="grid" /><line x1="200" y1="20" x2="200" y2="340" class="grid" /><line x1="220" y1="20" x2="220" y2="340" class="grid" /><line x1="240" y1="20" x2="240" y2="340" class="grid" /><line x1="260" y1="20" x2="260" y2="340" class="grid" /><line x1="280" y1="20" x2="280" y2="340" class="grid" /><line x1="300" y1="20" x2="300" y2="340" class="grid" /><line x1="320" y1="20" x2="320" y2="340" class="grid" /><line x1="340" y1="20" x2="340" y2="340" class="grid" /><line x1="20" y1="20" x2="340" y2="20" class="grid" /><line x1="20" y1="40" x2="340" y2="40" class="grid" /><line x1="20" y1="60" x2="340" y2="60" class="grid" /><line x1="20" y1="80" x2="340" y2="80" class="grid" /><line x1="20" y1="100" x2="340" y2="100" class="grid" /><line x1="20" y1="120" x2="340" y2="120" class="grid" /><line x1="20" y1="140" x2="340" y2="140" class="grid" /><line x1="20" y1="160" x2="340" y2="160" class="grid" /><line x1="20" y1="180" x2="340" y2="180" class="grid" /><line x1="20" y1="200" x2="340" y2="200" class="grid" /><line x1="20" y1="220" x2="340" y2="220" class="grid" /><line x1="20" y1="240" x2="340" y2="240" class="grid" /><line x1="20" y1="260" x2="340" y2="260" class="grid" /><line x1="20" y1="280" x2="340" y2="280" class="grid" /><line x1="20" y1="300" x2="340" y2="300" class="grid" /><line x1="20" y1="320" x2="340" y2="320" class="grid" /><line x1="20" y1="340" x2="340" y2="340" class="grid" /><text x="170" y="170" class="text" style="font-weight: bold;">U1</text><circle cx="130" cy="130" r="4" class="pin" /><circle cx="130" cy="150" r="4" class="pin" /><circle cx="130" cy="170" r="4" class="pin" /><circle cx="130" cy="190" r="4" class="pin" /><circle cx="190" cy="190" r="4" class="pin" /><circle cx="190" cy="170" r="4" class="pin" /><circle cx="190" cy="150" r="4" class="pin" /><circle cx="190" cy="130" r="4" class="pin" /><text x="170" y="60" class="text" style="font-weight: bold;">J1</text><circle cx="150" cy="50" r="4" class="pin" /><circle cx="170" cy="50" r="4" class="pin" /><text x="260" y="140" class="text" style="font-weight: bold;">R1</text><circle cx="230" cy="130" r="4" class="pin" /><circle cx="270" cy="130" r="4" class="pin" /><text x="260" y="160" class="text" style="font-weight: bold;">R2</text><circle cx="270" cy="150" r="4" class="pin" /><circle cx="230" cy="150" r="4" class="pin" /><text x="240" y="200" class="text" style="font-weight: bold;">C1</text><circle cx="230" cy="170" r="4" class="pin" /><circle cx="230" cy="210" r="4" class="pin" /><text x="100" y="180" class="text" style="font-weight: bold;">R3</text><circle cx="110" cy="170" r="4" class="pin" /><circle cx="70" cy="170" r="4" class="pin" /><text x="60" y="190" class="text" style="font-weight: bold;">LED1</text><circle cx="50" cy="170" r="4" class="pin" /><circle cx="50" cy="190" r="4" class="pin" /><path d="M 150 50 L 150 130 M 150 130 L 130 130 M 130 130 L 150 130 M 150 130 L 150 210 M 150 210 L 230 210 M 130 130 L 110 130 M 110 130 L 110 150 M 110 150 L 90 150 M 90 150 L 90 190 M 90 190 L 50 190 " class="trace" stroke="#e91e63" /><path d="M 170 50 L 170 130 M 170 130 L 190 130 M 190 130 L 170 130 M 170 130 L 170 190 M 170 190 L 130 190 M 190 130 L 230 130 " class="trace" stroke="#9c27b0" /><path d="M 190 150 L 210 150 M 210 150 L 210 110 M 210 110 L 250 110 M 250 110 L 250 130 M 250 130 L 270 130 M 270 130 L 270 150 " class="trace" stroke="#2196f3" /><path d="M 130 150 L 150 150 M 150 150 L 150 170 M 150 170 L 190 170 M 190 170 L 210 170 M 210 170 L 210 150 M 210 150 L 230 150 M 230 150 L 230 170 " class="trace" stroke="#00bcd4" /><path d="M 130 170 L 110 170 " class="trace" stroke="#4caf50" /><path d="M 70 170 L 50 170 " class="trace" stroke="#ff9800" /></svg>