<svg xmlns="http://www.w3.org/2000/svg" width="540" height="740" style="background: white; font-family: sans-serif;">
  <defs>
    <style>
      .grid { stroke: #eee; stroke-width: 1; }
      .pin { fill: #1976d2; }
      .trace { fill: none; stroke-width: 4; stroke-linecap: round; stroke-linejoin: round; opacity: 0.7; }
      .comp-body { fill: rgba(100, 100, 100, 0.1); stroke: #666; stroke-width: 1; }
      .text { font-size: 10px; fill: #333; text-anchor: middle; dominant-baseline: middle; }
      .pin-label { font-size: 8px; fill: #666; }
    </style>
  </defs>
<line x1="20" y1="20" x2="20" y2="720" class="grid" /><line x1="40" y1="20" x2="40" y2="720" class="grid" /><line x1="60" y1="20" x2="60" y2="720" class="grid" /><line x1="80" y1="20" x2="80" y2="720" class="grid" /><line x1="100" y1="20" x2="100" y2="720" class="grid" /><line x1="120" y1="20" x2="120" y2="720" class="grid" /><line x1="140" y1="20" x2="140" y2="720" class="grid" /><line x1="160" y1="20" x2="160" y2="720" class="grid" /><line x1="180" y1="20" x2="180" y2="720" class="grid" /><line x1="200" y1="20" x2="200" y2="720" class="grid" /><line x1="220" y1="20" x2="220" y2="720" class="grid" /><line x1="240" y1="20" x2="240" y2="720" class="grid" /><line x1="260" y1="20" x2="260" y2="720" class="grid" /><line x1="280" y1="20" x2="280" y2="720" class="grid" /><line x1="300" y1="20" x2="300" y2="720" class="grid" /><line x1="320" y1="20" x2="320" y2="720" class="grid" /><line x1="340" y1="20" x2="340" y2="720" class="grid" /><line x1="360" y1="20" x2="360" y2="720" class="grid" /><line x1="380" y1="20" x2="380" y2="720" class="grid" /><line x1="400" y1="20" x2="400" y2="720" class="grid" /><line x1="420" y1="20" x2="420" y2="720" class="grid" /><line x1="440" y1="20" x2="440" y2="720" class="grid" /><line x1="460" y1="20" x2="460" y2="720" class="grid" /><line x1="480" y1="20" x2="480" y2="720" class="grid" /><line x1="500" y1="20" x2="500" y2="720" class="grid" /><line x1="520" y1="20" x2="520" y2="720" class="grid" /><line x1="20" y1="20" x2="520" y2="20" class="grid" /><line x1="20" y1="40" x2="520" y2="40" class="grid" /><line x1="20" y1="60" x2="520" y2="60" class="grid" /><line x1="20" y1="80" x2="520" y2="80" class="grid" /><line x1="20" y1="100" x2="520" y2="100" class="grid" /><line x1="20" y1="120" x2="520" y2="120" class="grid" /><line x1="20" y1="140" x2="520" y2="140" class="grid" /><line x1="20" y1="160" x2="520" y2="160" class="grid" /><line x1="20" y1="180" x2="520" y2="180" class="grid" /><line x1="20" y1="200" x2="520" y2="200" class="grid" /><line x1="20" y1="220" x2="520" y2="220" class="grid" /><line x1="20" y1="240" x2="520" y2="240" class="grid" /><line x1="20" y1="260" x2="520" y2="260" class="grid" /><line x1="20" y1="280" x2="520" y2="280" class="grid" /><line x1="20" y1="300" x2="520" y2="300" class="grid" /><line x1="20" y1="320" x2="520" y2="320" class="grid" /><line x1="20" y1="340" x2="520" y2="340" class="grid" /><line x1="20" y1="360" x2="520" y2="360" class="grid" /><line x1="20" y1="380" x2="520" y2="380" class="grid" /><line x1="20" y1="400" x2="520" y2="400" class="grid" /><line x1="20" y1="420" x2="520" y2="420" class="grid" /><line x1="20" y1="440" x2="520" y2="440" class="grid" /><line x1="20" y1="460" x2="520" y2="460" class="grid" /><line x1="20" y1="480" x2="520" y2="480" class="grid" /><line x1="20" y1="500" x2="520" y2="500" class="grid" /><line x1="20" y1="520" x2="520" y2="520" class="grid" /><line x1="20" y1="540" x2="520" y2="540" class="grid" /><line x1="20" y1="560" x2="520" y2="560" class="grid" /><line x1="20" y1="580" x2="520" y2="580" class="grid" /><line x1="20" y1="600" x2="520" y2="600" class="grid" /><line x1="20" y1="620" x2="520" y2="620" class="grid" /><line x1="20" y1="640" x2="520" y2="640" class="grid" /><line x1="20" y1="660" x2="520" y2="660" class="grid" /><line x1="20" y1="680" x2="520" y2="680" class="grid" /><line x1="20" y1="700" x2="520" y2="700" class="grid" /><line x1="20" y1="720" x2="520" y2="720" class="grid" /><text x="230" y="260" class="text" style="font-weight: bold;">U1</text><circle cx="110" cy="110" r="4" class="pin" /><circle cx="110" cy="130" r="4" class="pin" /><circle cx="110" cy="150" r="4" class="pin" /><circle cx="110" cy="170" r="4" class="pin" /><circle cx="110" cy="190" r="4" class="pin" /><circle cx="110" cy="210" r="4" class="pin" /><circle cx="110" cy="230" r="4" class="pin" /><circle cx="110" cy="250" r="4" class="pin" /><circle cx="110" cy="270" r="4" class="pin" /><circle cx="110" cy="290" r="4" class="pin" /><circle cx="110" cy="310" r="4" class="pin" /><circle cx="110" cy="330" r="4" class="pin" /><circle cx="110" cy="350" r="4" class="pin" /><circle cx="110" cy="370" r="4" class="pin" /><circle cx="110" cy="390" r="4" class="pin" /><circle cx="330" cy="390" r="4" class="pin" /><circle cx="330" cy="370" r="4" class="pin" /><circle cx="330" cy="350" r="4" class="pin" /><circle cx="330" cy="330" r="4" class="pin" /><circle cx="330" cy="310" r="4" class="pin" /><circle cx="330" cy="290" r="4" class="pin" /><circle cx="330" cy="270" r="4" class="pin" /><circle cx="330" cy="250" r="4" class="pin" /><circle cx="330" cy="230" r="4" class="pin" /><circle cx="330" cy="210" r="4" class="pin" /><circle cx="330" cy="190" r="4" class="pin" /><circle cx="330" cy="170" r="4" class="pin" /><circle cx="330" cy="150" r="4" class="pin" /><circle cx="330" cy="130" r="4" class="pin" /><circle cx="330" cy="110" r="4" class="pin" /><text x="380" y="120" class="text" style="font-weight: bold;">R1</text><circle cx="350" cy="110" r="4" class="pin" /><circle cx="390" cy="110" r="4" class="pin" /><text x="420" y="160" class="text" style="font-weight: bold;">Q1</text><circle cx="410" cy="170" r="4" class="pin" /><circle cx="410" cy="150" r="4" class="pin" /><circle cx="410" cy="130" r="4" class="pin" /><text x="400" y="220" class="text" style="font-weight: bold;">BZ1</text><circle cx="370" cy="210" r="4" class="pin" /><circle cx="410" cy="210" r="4" class="pin" /><text x="380" y="260" class="text" style="font-weight: bold;">R2</text><circle cx="350" cy="250" r="4" class="pin" /><circle cx="390" cy="250" r="4" class="pin" /><text x="420" y="300" class="text" style="font-weight: bold;">Q2</text><circle cx="410" cy="310" r="4" class="pin" /><circle cx="410" cy="290" r="4" class="pin" /><circle cx="410" cy="270" r="4" class="pin" /><text x="400" y="360" class="text" style="font-weight: bold;">BZ2</text><circle cx="370" cy="350" r="4" class="pin" /><circle cx="410" cy="350" r="4" class="pin" /><path d="M 330 110 L 350 110 " class="trace" stroke="#e91e63" /><path d="M 390 110 L 390 130 M 390 130 L 390 150 M 390 150 L 410 150 " class="trace" stroke="#9c27b0" /><path d="M 410 130 L 430 130 M 430 130 L 430 150 M 430 150 L 430 170 M 430 170 L 430 190 M 430 190 L 430 210 M 430 210 L 410 210 " class="trace" stroke="#2196f3" /><path d="M 330 130 L 350 130 M 350 130 L 350 150 M 350 150 L 350 170 M 350 170 L 350 190 M 350 190 L 350 210 M 350 210 L 350 230 M 350 230 L 350 250 " class="trace" stroke="#00bcd4" /><path d="M 390 250 L 390 270 M 390 270 L 390 290 M 390 290 L 410 290 " class="trace" stroke="#4caf50" /><path d="M 410 270 L 430 270 M 430 270 L 430 290 M 430 290 L 430 310 M 430 310 L 430 330 M 430 330 L 430 350 M 430 350 L 410 350 " class="trace" stroke="#ff9800" /><path d="M 330 390 L 350 390 M 350 390 L 350 370 M 350 370 L 350 350 M 350 350 L 350 330 M 350 330 L 350 310 M 350 310 L 350 290 M 350 290 L 350 270 M 350 270 L 370 270 M 370 270 L 370 250 M 370 250 L 370 230 M 370 230 L 390 230 M 390 230 L 390 210 M 390 210 L 390 190 M 390 190 L 390 170 M 390 170 L 410 170 M 350 310 L 370 310 M 370 310 L 390 310 M 390 310 L 410 310 " class="trace" stroke="#795548" /><path d="M 110 390 L 130 390 M 130 390 L 130 370 M 130 370 L 130 350 M 130 350 L 130 330 M 130 330 L 130 310 M 130 310 L 130 290 M 130 290 L 130 270 M 130 270 L 130 250 M 130 250 L 130 230 M 130 230 L 130 210 M 130 210 L 130 190 M 130 190 L 130 170 M 130 170 L 130 150 M 130 150 L 130 130 M 130 130 L 130 110 M 130 110 L 130 90 M 130 90 L 150 90 M 150 90 L 170 90 M 170 90 L 190 90 M 190 90 L 210 90 M 210 90 L 230 90 M 230 90 L 250 90 M 250 90 L 270 90 M 270 90 L 290 90 M 290 90 L 310 90 M 310 90 L 330 90 M 330 90 L 350 90 M 350 90 L 370 90 M 370 90 L 370 110 M 370 110 L 370 130 M 370 130 L 370 150 M 370 150 L 370 170 M 370 170 L 370 190 M 370 190 L 370 210 M 130 390 L 130 410 M 130 410 L 150 410 M 150 410 L 170 410 M 170 410 L 190 410 M 190 410 L 210 410 M 210 410 L 230 410 M 230 410 L 250 410 M 250 410 L 270 410 M 270 410 L 290 410 M 290 410 L 310 410 M 310 410 L 330 410 M 330 410 L 350 410 M 350 410 L 370 410 M 370 410 L 370 390 M 370 390 L 370 370 M 370 370 L 370 350 " class="trace" stroke="#e91e63" /></svg>