<svg xmlns="http://www.w3.org/2000/svg" width="540" height="640" style="background: white; font-family: sans-serif;">
  <defs>
    <style>
      .grid { stroke: #eee; stroke-width: 1; }
      .pin { fill: #1976d2; }
      .trace { fill: none; stroke-width: 4; stroke-linecap: round; stroke-linejoin: round; opacity: 0.7; }
      .comp-body { fill: rgba(100, 100, 100, 0.1); stroke: #666; stroke-width: 1; }
      .text { font-size: 10px; fill: #333; text-anchor: middle; dominant-baseline: middle; }
      .pin-label { font-size: 8px; fill: #666; }
    </style>
  </defs>
<line x1="20" y1="20" x2="20" y2="620" class="grid" /><line x1="40" y1="20" x2="40" y2="620" class="grid" /><line x1="60" y1="20" x2="60" y2="620" class="grid" /><line x1="80" y1="20" x2="80" y2="620" class="grid" /><line x1="100" y1="20" x2="100" y2="620" class="grid" /><line x1="120" y1="20" x2="120" y2="620" class="grid" /><line x1="140" y1="20" x2="140" y2="620" class="grid" /><line x1="160" y1="20" x2="160" y2="620" class="grid" /><line x1="180" y1="20" x2="180" y2="620" class="grid" /><line x1="200" y1="20" x2="200" y2="620" class="grid" /><line x1="220" y1="20" x2="220" y2="620" class="grid" /><line x1="240" y1="20" x2="240" y2="620" class="grid" /><line x1="260" y1="20" x2="260" y2="620" class="grid" /><line x1="280" y1="20" x2="280" y2="620" class="grid" /><line x1="300" y1="20" x2="300" y2="620" class="grid" /><line x1="320" y1="20" x2="320" y2="620" class="grid" /><line x1="340" y1="20" x2="340" y2="620" class="grid" /><line x1="360" y1="20" x2="360" y2="620" class="grid" /><line x1="380" y1="20" x2="380" y2="620" class="grid" /><line x1="400" y1="20" x2="400" y2="620" class="grid" /><line x1="420" y1="20" x2="420" y2="620" class="grid" /><line x1="440" y1="20" x2="440" y2="620" class="grid" /><line x1="460" y1="20" x2="460" y2="620" class="grid" /><line x1="480" y1="20" x2="480" y2="620" class="grid" /><line x1="500" y1="20" x2="500" y2="620" class="grid" /><line x1="520" y1="20" x2="520" y2="620" class="grid" /><line x1="20" y1="20" x2="520" y2="20" class="grid" /><line x1="20" y1="40" x2="520" y2="40" class="grid" /><line x1="20" y1="60" x2="520" y2="60" class="grid" /><line x1="20" y1="80" x2="520" y2="80" class="grid" /><line x1="20" y1="100" x2="520" y2="100" class="grid" /><line x1="20" y1="120" x2="520" y2="120" class="grid" /><line x1="20" y1="140" x2="520" y2="140" class="grid" /><line x1="20" y1="160" x2="520" y2="160" class="grid" /><line x1="20" y1="180" x2="520" y2="180" class="grid" /><line x1="20" y1="200" x2="520" y2="200" class="grid" /><line x1="20" y1="220" x2="520" y2="220" class="grid" /><line x1="20" y1="240" x2="520" y2="240" class="grid" /><line x1="20" y1="260" x2="520" y2="260" class="grid" /><line x1="20" y1="280" x2="520" y2="280" class="grid" /><line x1="20" y1="300" x2="520" y2="300" class="grid" /><line x1="20" y1="320" x2="520" y2="320" class="grid" /><line x1="20" y1="340" x2="520" y2="340" class="grid" /><line x1="20" y1="360" x2="520" y2="360" class="grid" /><line x1="20" y1="380" x2="520" y2="380" class="grid" /><line x1="20" y1="400" x2="520" y2="400" class="grid" /><line x1="20" y1="420" x2="520" y2="420" class="grid" /><line x1="20" y1="440" x2="520" y2="440" class="grid" /><line x1="20" y1="460" x2="520" y2="460" class="grid" /><line x1="20" y1="480" x2="520" y2="480" class="grid" /><line x1="20" y1="500" x2="520" y2="500" class="grid" /><line x1="20" y1="520" x2="520" y2="520" class="grid" /><line x1="20" y1="540" x2="520" y2="540" class="grid" /><line x1="20" y1="560" x2="520" y2="560" class="grid" /><line x1="20" y1="580" x2="520" y2="580" class="grid" /><line x1="20" y1="600" x2="520" y2="600" class="grid" /><line x1="20" y1="620" x2="520" y2="620" class="grid" /><text x="170" y="260" class="text" style="font-weight: bold;">U1</text><circle cx="270" cy="110" r="4" class="pin" /><circle cx="270" cy="390" r="4" class="pin" /><circle cx="50" cy="390" r="4" class="pin" /><text x="320" y="160" class="text" style="font-weight: bold;">R1</text><circle cx="310" cy="110" r="4" class="pin" /><circle cx="310" cy="190" r="4" class="pin" /><text x="320" y="380" class="text" style="font-weight: bold;">Q1</text><circle cx="310" cy="390" r="4" class="pin" /><circle cx="310" cy="370" r="4" class="pin" /><circle cx="310" cy="350" r="4" class="pin" /><text x="140" y="460" class="text" style="font-weight: bold;">BZ1</text><circle cx="110" cy="450" r="4" class="pin" /><circle cx="150" cy="450" r="4" class="pin" /><path d="M 270 110 L 290 110 M 290 110 L 310 110 " class="trace" stroke="#e91e63" /><path d="M 310 190 L 310 210 M 310 210 L 310 230 M 310 230 L 310 250 M 310 250 L 310 270 M 310 270 L 310 290 M 310 290 L 310 310 M 310 310 L 310 330 M 310 330 L 330 330 M 330 330 L 330 350 M 330 350 L 330 370 M 330 370 L 310 370 " class="trace" stroke="#9c27b0" /><path d="M 270 390 L 290 390 M 290 390 L 310 390 " class="trace" stroke="#2196f3" /><path d="M 310 350 L 290 350 M 290 350 L 290 370 M 290 370 L 270 370 M 270 370 L 250 370 M 250 370 L 250 390 M 250 390 L 250 410 M 250 410 L 250 430 M 250 430 L 250 450 M 250 450 L 230 450 M 230 450 L 210 450 M 210 450 L 190 450 M 190 450 L 170 450 M 170 450 L 150 450 " class="trace" stroke="#00bcd4" /><path d="M 50 390 L 50 410 M 50 410 L 50 430 M 50 430 L 50 450 M 50 450 L 70 450 M 70 450 L 90 450 M 90 450 L 110 450 " class="trace" stroke="#4caf50" /></svg>