<svg xmlns="http://www.w3.org/2000/svg" width="640" height="440" style="background: white; font-family: sans-serif;">
  <defs>
    <style>
      .grid { stroke: #eee; stroke-width: 1; }
      .pin { fill: #1976d2; }
      .trace { fill: none; stroke-width: 4; stroke-linecap: round; stroke-linejoin: round; opacity: 0.7; }
      .comp-body { fill: rgba(100, 100, 100, 0.1); stroke: #666; stroke-width: 1; }
      .text { font-size: 10px; fill: #333; text-anchor: middle; dominant-baseline: middle; }
      .pin-label { font-size: 8px; fill: #666; }
    </style>
  </defs>
<line x1="20" y1="20" x2="20" y2="420" class="grid" /><line x1="40" y1="20" x2="40" y2="420" class="grid" /><line x1="60" y1="20" x2="60" y2="420" class="grid" /><line x1="80" y1="20" x2="80" y2="420" class="grid" /><line x1="100" y1="20" x2="100" y2="420" class="grid" /><line x1="120" y1="20" x2="120" y2="420" class="grid" /><line x1="140" y1="20" x2="140" y2="420" class="grid" /><line x1="160" y1="20" x2="160" y2="420" class="grid" /><line x1="180" y1="20" x2="180" y2="420" class="grid" /><line x1="200" y1="20" x2="200" y2="420" class="grid" /><line x1="220" y1="20" x2="220" y2="420" class="grid" /><line x1="240" y1="20" x2="240" y2="420" class="grid" /><line x1="260" y1="20" x2="260" y2="420" class="grid" /><line x1="280" y1="20" x2="280" y2="420" class="grid" /><line x1="300" y1="20" x2="300" y2="420" class="grid" /><line x1="320" y1="20" x2="320" y2="420" class="grid" /><line x1="340" y1="20" x2="340" y2="420" class="grid" /><line x1="360" y1="20" x2="360" y2="420" class="grid" /><line x1="380" y1="20" x2="380" y2="420" class="grid" /><line x1="400" y1="20" x2="400" y2="420" class="grid" /><line x1="420" y1="20" x2="420" y2="420" class="grid" /><line x1="440" y1="20" x2="440" y2="420" class="grid" /><line x1="460" y1="20" x2="460" y2="420" class="grid" /><line x1="480" y1="20" x2="480" y2="420" class="grid" /><line x1="500" y1="20" x2="500" y2="420" class="grid" /><line x1="520" y1="20" x2="520" y2="420" class="grid" /><line x1="540" y1="20" x2="540" y2="420" class="grid" /><line x1="560" y1="20" x2="560" y2="420" class="grid" /><line x1="580" y1="20" x2="580" y2="420" class="grid" /><line x1="600" y1="20" x2="600" y2="420" class="grid" /><line x1="620" y1="20" x2="620" y2="420" class="grid" /><line x1="20" y1="20" x2="620" y2="20" class="grid" /><line x1="20" y1="40" x2="620" y2="40" class="grid" /><line x1="20" y1="60" x2="620" y2="60" class="grid" /><line x1="20" y1="80" x2="620" y2="80" class="grid" /><line x1="20" y1="100" x2="620" y2="100" class="grid" /><line x1="20" y1="120" x2="620" y2="120" class="grid" /><line x1="20" y1="140" x2="620" y2="140" class="grid" /><line x1="20" y1="160" x2="620" y2="160" class="grid" /><line x1="20" y1="180" x2="620" y2="180" class="grid" /><line x1="20" y1="200" x2="620" y2="200" class="grid" /><line x1="20" y1="220" x2="620" y2="220" class="grid" /><line x1="20" y1="240" x2="620" y2="240" class="grid" /><line x1="20" y1="260" x2="620" y2="260" class="grid" /><line x1="20" y1="280" x2="620" y2="280" class="grid" /><line x1="20" y1="300" x2="620" y2="300" class="grid" /><line x1="20" y1="320" x2="620" y2="320" class="grid" /><line x1="20" y1="340" x2="620" y2="340" class="grid" /><line x1="20" y1="360" x2="620" y2="360" class="grid" /><line x1="20" y1="380" x2="620" y2="380" class="grid" /><line x1="20" y1="400" x2="620" y2="400" class="grid" /><line x1="20" y1="420" x2="620" y2="420" class="grid" /><text x="170" y="200" class="text" style="font-weight: bold;">U1</text><circle cx="50" cy="50" r="4" class="pin" /><circle cx="50" cy="70" r="4" class="pin" /><circle cx="50" cy="90" r="4" class="pin" /><circle cx="50" cy="110" r="4" class="pin" /><circle cx="50" cy="130" r="4" class="pin" /><circle cx="50" cy="150" r="4" class="pin" /><circle cx="50" cy="170" r="4" class="pin" /><circle cx="50" cy="190" r="4" class="pin" /><circle cx="50" cy="210" r="4" class="pin" /><circle cx="50" cy="230" r="4" class="pin" /><circle cx="50" cy="250" r="4" class="pin" /><circle cx="50" cy="270" r="4" class="pin" /><circle cx="50" cy="290" r="4" class="pin" /><circle cx="50" cy="310" r="4" class="pin" /><circle cx="50" cy="330" r="4" class="pin" /><circle cx="270" cy="330" r="4" class="pin" /><circle cx="270" cy="310" r="4" class="pin" /><circle cx="270" cy="290" r="4" class="pin" /><circle cx="270" cy="270" r="4" class="pin" /><circle cx="270" cy="250" r="4" class="pin" /><circle cx="270" cy="230" r="4" class="pin" /><circle cx="270" cy="210" r="4" class="pin" /><circle cx="270" cy="190" r="4" class="pin" /><circle cx="270" cy="170" r="4" class="pin" /><circle cx="270" cy="150" r="4" class="pin" /><circle cx="270" cy="130" r="4" class="pin" /><circle cx="270" cy="110" r="4" class="pin" /><circle cx="270" cy="90" r="4" class="pin" /><circle cx="270" cy="70" r="4" class="pin" /><circle cx="270" cy="50" r="4" class="pin" /><text x="370" y="60" class="text" style="font-weight: bold;">R1</text><circle cx="330" cy="50" r="4" class="pin" /><circle cx="390" cy="50" r="4" class="pin" /><text x="370" y="80" class="text" style="font-weight: bold;">R2</text><circle cx="330" cy="70" r="4" class="pin" /><circle cx="390" cy="70" r="4" class="pin" /><text x="440" y="60" class="text" style="font-weight: bold;">Q1</text><circle cx="430" cy="70" r="4" class="pin" /><circle cx="430" cy="50" r="4" class="pin" /><circle cx="430" cy="30" r="4" class="pin" /><text x="480" y="100" class="text" style="font-weight: bold;">Q2</text><circle cx="470" cy="110" r="4" class="pin" /><circle cx="470" cy="90" r="4" class="pin" /><circle cx="470" cy="70" r="4" class="pin" /><text x="560" y="60" class="text" style="font-weight: bold;">BZ1</text><circle cx="550" cy="70" r="4" class="pin" /><circle cx="550" cy="30" r="4" class="pin" /><text x="560" y="140" class="text" style="font-weight: bold;">BZ2</text><circle cx="550" cy="150" r="4" class="pin" /><circle cx="550" cy="110" r="4" class="pin" /><path d="M 270 50 L 290 50 M 290 50 L 310 50 M 310 50 L 330 50 " class="trace" stroke="#e91e63" /><path d="M 270 70 L 290 70 M 290 70 L 310 70 M 310 70 L 330 70 " class="trace" stroke="#9c27b0" /><path d="M 390 50 L 410 50 M 410 50 L 430 50 " class="trace" stroke="#2196f3" /><path d="M 390 70 L 390 90 M 390 90 L 410 90 M 410 90 L 430 90 M 430 90 L 450 90 M 450 90 L 470 90 " class="trace" stroke="#00bcd4" /><path d="M 430 30 L 450 30 M 450 30 L 470 30 M 470 30 L 490 30 M 490 30 L 510 30 M 510 30 L 530 30 M 530 30 L 550 30 " class="trace" stroke="#4caf50" /><path d="M 470 70 L 490 70 M 490 70 L 490 90 M 490 90 L 490 110 M 490 110 L 510 110 M 510 110 L 530 110 M 530 110 L 550 110 " class="trace" stroke="#ff9800" /><path d="M 270 330 L 290 330 M 290 330 L 290 310 M 290 310 L 290 290 M 290 290 L 290 270 M 290 270 L 290 250 M 290 250 L 290 230 M 290 230 L 290 210 M 290 210 L 290 190 M 290 190 L 290 170 M 290 170 L 290 150 M 290 150 L 290 130 M 290 130 L 310 130 M 310 130 L 330 130 M 330 130 L 350 130 M 350 130 L 370 130 M 370 130 L 390 130 M 390 130 L 410 130 M 410 130 L 430 130 M 430 130 L 450 130 M 450 130 L 470 130 M 470 130 L 490 130 M 490 130 L 510 130 M 510 130 L 530 130 M 530 130 L 550 130 M 550 130 L 570 130 M 570 130 L 570 110 M 570 110 L 570 90 M 570 90 L 570 70 M 570 70 L 570 50 M 570 50 L 550 50 M 550 50 L 530 50 M 530 50 L 510 50 M 510 50 L 490 50 M 490 50 L 470 50 M 470 50 L 450 50 M 450 50 L 450 70 M 450 70 L 430 70 M 430 70 L 450 70 M 450 70 L 450 50 M 450 50 L 470 50 M 470 50 L 490 50 M 490 50 L 510 50 M 510 50 L 510 70 M 510 70 L 510 90 M 510 90 L 530 90 M 530 90 L 550 90 M 550 90 L 570 90 M 570 90 L 570 110 M 570 110 L 570 130 M 570 130 L 550 130 M 550 130 L 530 130 M 530 130 L 510 130 M 510 130 L 490 130 M 490 130 L 470 130 M 470 130 L 470 110 " class="trace" stroke="#795548" /><path d="M 50 330 L 50 350 M 50 350 L 70 350 M 70 350 L 90 350 M 90 350 L 110 350 M 110 350 L 130 350 M 130 350 L 150 350 M 150 350 L 170 350 M 170 350 L 190 350 M 190 350 L 210 350 M 210 350 L 230 350 M 230 350 L 250 350 M 250 350 L 270 350 M 270 350 L 290 350 M 290 350 L 310 350 M 310 350 L 310 330 M 310 330 L 310 310 M 310 310 L 310 290 M 310 290 L 310 270 M 310 270 L 310 250 M 310 250 L 310 230 M 310 230 L 310 210 M 310 210 L 310 190 M 310 190 L 310 170 M 310 170 L 310 150 M 310 150 L 330 150 M 330 150 L 350 150 M 350 150 L 370 150 M 370 150 L 390 150 M 390 150 L 410 150 M 410 150 L 430 150 M 430 150 L 450 150 M 450 150 L 470 150 M 470 150 L 490 150 M 490 150 L 510 150 M 510 150 L 530 150 M 530 70 L 550 70 " class="trace" stroke="#e91e63" /><line x1="530" y1="150" x2="530" y2="130" 
                stroke="#4caf50" stroke-width="3" stroke-dasharray="5,5" opacity="1" /><line x1="530" y1="130" x2="530" y2="110" 
                stroke="#4caf50" stroke-width="3" stroke-dasharray="5,5" opacity="1" /><line x1="530" y1="110" x2="530" y2="90" 
                stroke="#4caf50" stroke-width="3" stroke-dasharray="5,5" opacity="1" /><line x1="530" y1="90" x2="530" y2="70" 
                stroke="#4caf50" stroke-width="3" stroke-dasharray="5,5" opacity="1" /><line x1="550" y1="70" x2="550" y2="90" 
                stroke="#4caf50" stroke-width="3" stroke-dasharray="5,5" opacity="1" /><line x1="550" y1="90" x2="550" y2="110" 
                stroke="#4caf50" stroke-width="3" stroke-dasharray="5,5" opacity="1" /><line x1="550" y1="110" x2="550" y2="130" 
                stroke="#4caf50" stroke-width="3" stroke-dasharray="5,5" opacity="1" /><line x1="550" y1="130" x2="550" y2="150" 
                stroke="#4caf50" stroke-width="3" stroke-dasharray="5,5" opacity="1" /></svg>