<svg xmlns="http://www.w3.org/2000/svg" width="280" height="280" style="background: white; font-family: sans-serif;">
  <defs>
    <style>
      .grid { stroke: #eee; stroke-width: 1; }
      .pin { fill: #1976d2; }
      .trace { fill: none; stroke-width: 4; stroke-linecap: round; stroke-linejoin: round; opacity: 0.7; }
      .comp-body { fill: rgba(100, 100, 100, 0.1); stroke: #666; stroke-width: 1; }
      .text { font-size: 10px; fill: #333; text-anchor: middle; dominant-baseline: middle; }
      .pin-label { font-size: 8px; fill: #666; }
    </style>
  </defs>
<line x1="20" y1="20" x2="20" y2="260" class="grid" /><line x1="40" y1="20" x2="40" y2="260" class="grid" /><line x1="60" y1="20" x2="60" y2="260" class="grid" /><line x1="80" y1="20" x2="80" y2="260" class="grid" /><line x1="100" y1="20" x2="100" y2="260" class="grid" /><line x1="120" y1="20" x2="120" y2="260" class="grid" /><line x1="140" y1="20" x2="140" y2="260" class="grid" /><line x1="160" y1="20" x2="160" y2="260" class="grid" /><line x1="180" y1="20" x2="180" y2="260" class="grid" /><line x1="200" y1="20" x2="200" y2="260" class="grid" /><line x1="220" y1="20" x2="220" y2="260" class="grid" /><line x1="240" y1="20" x2="240" y2="260" class="grid" /><line x1="260" y1="20" x2="260" y2="260" class="grid" /><line x1="20" y1="20" x2="260" y2="20" class="grid" /><line x1="20" y1="40" x2="260" y2="40" class="grid" /><line x1="20" y1="60" x2="260" y2="60" class="grid" /><line x1="20" y1="80" x2="260" y2="80" class="grid" /><line x1="20" y1="100" x2="260" y2="100" class="grid" /><line x1="20" y1="120" x2="260" y2="120" class="grid" /><line x1="20" y1="140" x2="260" y2="140" class="grid" /><line x1="20" y1="160" x2="260" y2="160" class="grid" /><line x1="20" y1="180" x2="260" y2="180" class="grid" /><line x1="20" y1="200" x2="260" y2="200" class="grid" /><line x1="20" y1="220" x2="260" y2="220" class="grid" /><line x1="20" y1="240" x2="260" y2="240" class="grid" /><line x1="20" y1="260" x2="260" y2="260" class="grid" /><text x="80" y="60" class="text" style="font-weight: bold;">Q1</text><circle cx="70" cy="30" r="4" class="pin" /><circle cx="70" cy="50" r="4" class="pin" /><circle cx="70" cy="70" r="4" class="pin" /><text x="80" y="200" class="text" style="font-weight: bold;">Q3</text><circle cx="70" cy="210" r="4" class="pin" /><circle cx="70" cy="190" r="4" class="pin" /><circle cx="70" cy="170" r="4" class="pin" /><text x="180" y="60" class="text" style="font-weight: bold;">Q2</text><circle cx="170" cy="30" r="4" class="pin" /><circle cx="170" cy="50" r="4" class="pin" /><circle cx="170" cy="70" r="4" class="pin" /><text x="180" y="200" class="text" style="font-weight: bold;">Q4</text><circle cx="170" cy="210" r="4" class="pin" /><circle cx="170" cy="190" r="4" class="pin" /><circle cx="170" cy="170" r="4" class="pin" /><text x="40" y="60" class="text" style="font-weight: bold;">D3</text><circle cx="30" cy="30" r="4" class="pin" /><circle cx="30" cy="70" r="4" class="pin" /><text x="40" y="200" class="text" style="font-weight: bold;">D1</text><circle cx="30" cy="210" r="4" class="pin" /><circle cx="30" cy="170" r="4" class="pin" /><text x="220" y="60" class="text" style="font-weight: bold;">D4</text><circle cx="210" cy="30" r="4" class="pin" /><circle cx="210" cy="70" r="4" class="pin" /><text x="220" y="200" class="text" style="font-weight: bold;">D2</text><circle cx="210" cy="210" r="4" class="pin" /><circle cx="210" cy="170" r="4" class="pin" /><text x="40" y="60" class="text" style="font-weight: bold;">R1</text><circle cx="10" cy="50" r="4" class="pin" /><circle cx="50" cy="50" r="4" class="pin" /><text x="40" y="200" class="text" style="font-weight: bold;">R3</text><circle cx="10" cy="190" r="4" class="pin" /><circle cx="50" cy="190" r="4" class="pin" /><text x="220" y="60" class="text" style="font-weight: bold;">R2</text><circle cx="230" cy="50" r="4" class="pin" /><circle cx="190" cy="50" r="4" class="pin" /><text x="220" y="200" class="text" style="font-weight: bold;">R4</text><circle cx="230" cy="190" r="4" class="pin" /><circle cx="190" cy="190" r="4" class="pin" /><path d="M 30 30 L 30 10 M 70 30 L 70 10 M 170 30 L 170 10 M 210 30 L 210 10 M 30 10 L 210 10 " class="trace" stroke="#e91e63" /><path d="M 30 210 L 30 230 M 70 210 L 70 230 M 170 210 L 170 230 M 210 210 L 210 230 M 30 230 L 210 230 " class="trace" stroke="#9c27b0" /><path d="M 70 70 L 70 170 M 70 70 L 30 70 M 70 170 L 30 170 " class="trace" stroke="#2196f3" /><path d="M 170 70 L 170 170 M 170 70 L 210 70 M 170 170 L 210 170 " class="trace" stroke="#00bcd4" /><path d="M 10 50 L 10 190 " class="trace" stroke="#4caf50" /><path d="M 230 50 L 230 190 " class="trace" stroke="#ff9800" /><path d="M 50 50 L 70 50 " class="trace" stroke="#795548" /><path d="M 50 190 L 70 190 " class="trace" stroke="#e91e63" /><path d="M 190 50 L 170 50 " class="trace" stroke="#9c27b0" /><path d="M 190 190 L 170 190 " class="trace" stroke="#2196f3" /></svg>