<svg xmlns="http://www.w3.org/2000/svg" width="640" height="440" style="background: white; font-family: sans-serif;">
  <defs>
    <style>
      .grid { stroke: #eee; stroke-width: 1; }
      .pin { fill: #1976d2; }
      .trace { fill: none; stroke-width: 4; stroke-linecap: round; stroke-linejoin: round; opacity: 0.7; }
      .comp-body { fill: rgba(100, 100, 100, 0.1); stroke: #666; stroke-width: 1; }
      .text { font-size: 10px; fill: #333; text-anchor: middle; dominant-baseline: middle; }
      .pin-label { font-size: 8px; fill: #666; }
    </style>
  </defs>
<line x1="20" y1="20" x2="20" y2="420" class="grid" /><line x1="40" y1="20" x2="40" y2="420" class="grid" /><line x1="60" y1="20" x2="60" y2="420" class="grid" /><line x1="80" y1="20" x2="80" y2="420" class="grid" /><line x1="100" y1="20" x2="100" y2="420" class="grid" /><line x1="120" y1="20" x2="120" y2="420" class="grid" /><line x1="140" y1="20" x2="140" y2="420" class="grid" /><line x1="160" y1="20" x2="160" y2="420" class="grid" /><line x1="180" y1="20" x2="180" y2="420" class="grid" /><line x1="200" y1="20" x2="200" y2="420" class="grid" /><line x1="220" y1="20" x2="220" y2="420" class="grid" /><line x1="240" y1="20" x2="240" y2="420" class="grid" /><line x1="260" y1="20" x2="260" y2="420" class="grid" /><line x1="280" y1="20" x2="280" y2="420" class="grid" /><line x1="300" y1="20" x2="300" y2="420" class="grid" /><line x1="320" y1="20" x2="320" y2="420" class="grid" /><line x1="340" y1="20" x2="340" y2="420" class="grid" /><line x1="360" y1="20" x2="360" y2="420" class="grid" /><line x1="380" y1="20" x2="380" y2="420" class="grid" /><line x1="400" y1="20" x2="400" y2="420" class="grid" /><line x1="420" y1="20" x2="420" y2="420" class="grid" /><line x1="440" y1="20" x2="440" y2="420" class="grid" /><line x1="460" y1="20" x2="460" y2="420" class="grid" /><line x1="480" y1="20" x2="480" y2="420" class="grid" /><line x1="500" y1="20" x2="500" y2="420" class="grid" /><line x1="520" y1="20" x2="520" y2="420" class="grid" /><line x1="540" y1="20" x2="540" y2="420" class="grid" /><line x1="560" y1="20" x2="560" y2="420" class="grid" /><line x1="580" y1="20" x2="580" y2="420" class="grid" /><line x1="600" y1="20" x2="600" y2="420" class="grid" /><line x1="620" y1="20" x2="620" y2="420" class="grid" /><line x1="20" y1="20" x2="620" y2="20" class="grid" /><line x1="20" y1="40" x2="620" y2="40" class="grid" /><line x1="20" y1="60" x2="620" y2="60" class="grid" /><line x1="20" y1="80" x2="620" y2="80" class="grid" /><line x1="20" y1="100" x2="620" y2="100" class="grid" /><line x1="20" y1="120" x2="620" y2="120" class="grid" /><line x1="20" y1="140" x2="620" y2="140" class="grid" /><line x1="20" y1="160" x2="620" y2="160" class="grid" /><line x1="20" y1="180" x2="620" y2="180" class="grid" /><line x1="20" y1="200" x2="620" y2="200" class="grid" /><line x1="20" y1="220" x2="620" y2="220" class="grid" /><line x1="20" y1="240" x2="620" y2="240" class="grid" /><line x1="20" y1="260" x2="620" y2="260" class="grid" /><line x1="20" y1="280" x2="620" y2="280" class="grid" /><line x1="20" y1="300" x2="620" y2="300" class="grid" /><line x1="20" y1="320" x2="620" y2="320" class="grid" /><line x1="20" y1="340" x2="620" y2="340" class="grid" /><line x1="20" y1="360" x2="620" y2="360" class="grid" /><line x1="20" y1="380" x2="620" y2="380" class="grid" /><line x1="20" y1="400" x2="620" y2="400" class="grid" /><line x1="20" y1="420" x2="620" y2="420" class="grid" /><text x="170" y="200" class="text" style="font-weight: bold;">U1</text><circle cx="50" cy="50" r="4" class="pin" /><circle cx="50" cy="70" r="4" class="pin" /><circle cx="50" cy="90" r="4" class="pin" /><circle cx="50" cy="110" r="4" class="pin" /><circle cx="50" cy="130" r="4" class="pin" /><circle cx="50" cy="150" r="4" class="pin" /><circle cx="50" cy="170" r="4" class="pin" /><circle cx="50" cy="190" r="4" class="pin" /><circle cx="50" cy="210" r="4" class="pin" /><circle cx="50" cy="230" r="4" class="pin" /><circle cx="50" cy="250" r="4" class="pin" /><circle cx="50" cy="270" r="4" class="pin" /><circle cx="50" cy="290" r="4" class="pin" /><circle cx="50" cy="310" r="4" class="pin" /><circle cx="50" cy="330" r="4" class="pin" /><circle cx="270" cy="50" r="4" class="pin" /><circle cx="270" cy="70" r="4" class="pin" /><circle cx="270" cy="90" r="4" class="pin" /><circle cx="270" cy="110" r="4" class="pin" /><circle cx="270" cy="130" r="4" class="pin" /><circle cx="270" cy="150" r="4" class="pin" /><circle cx="270" cy="170" r="4" class="pin" /><circle cx="270" cy="190" r="4" class="pin" /><circle cx="270" cy="210" r="4" class="pin" /><circle cx="270" cy="230" r="4" class="pin" /><circle cx="270" cy="250" r="4" class="pin" /><circle cx="270" cy="270" r="4" class="pin" /><circle cx="270" cy="290" r="4" class="pin" /><circle cx="270" cy="310" r="4" class="pin" /><circle cx="270" cy="330" r="4" class="pin" /><text x="350" y="60" class="text" style="font-weight: bold;">R1</text><circle cx="310" cy="50" r="4" class="pin" /><circle cx="370" cy="50" r="4" class="pin" /><text x="400" y="60" class="text" style="font-weight: bold;">Q1</text><circle cx="390" cy="30" r="4" class="pin" /><circle cx="390" cy="50" r="4" class="pin" /><circle cx="390" cy="70" r="4" class="pin" /><text x="460" y="80" class="text" style="font-weight: bold;">BZ1</text><circle cx="430" cy="70" r="4" class="pin" /><circle cx="470" cy="70" r="4" class="pin" /><text x="350" y="100" class="text" style="font-weight: bold;">R2</text><circle cx="310" cy="90" r="4" class="pin" /><circle cx="370" cy="90" r="4" class="pin" /><text x="400" y="120" class="text" style="font-weight: bold;">Q2</text><circle cx="390" cy="110" r="4" class="pin" /><circle cx="390" cy="90" r="4" class="pin" /><circle cx="390" cy="130" r="4" class="pin" /><text x="460" y="140" class="text" style="font-weight: bold;">BZ2</text><circle cx="430" cy="130" r="4" class="pin" /><circle cx="470" cy="130" r="4" class="pin" /><path d="M 270 50 L 290 50 M 290 50 L 310 50 " class="trace" stroke="#e91e63" /><path d="M 370 50 L 390 50 " class="trace" stroke="#9c27b0" /><path d="M 390 70 L 410 70 M 410 70 L 430 70 " class="trace" stroke="#2196f3" /><path d="M 270 70 L 290 70 M 290 70 L 290 90 M 290 90 L 310 90 " class="trace" stroke="#00bcd4" /><path d="M 370 90 L 390 90 " class="trace" stroke="#4caf50" /><path d="M 390 130 L 410 130 M 410 130 L 430 130 " class="trace" stroke="#ff9800" /><path d="M 270 170 L 290 170 M 290 170 L 290 150 M 290 150 L 290 130 M 290 130 L 290 110 M 290 110 L 310 110 M 310 110 L 330 110 M 330 110 L 330 90 M 330 90 L 330 70 M 330 70 L 330 50 M 330 50 L 330 30 M 330 30 L 350 30 M 350 30 L 370 30 M 370 30 L 390 30 M 330 110 L 350 110 M 350 110 L 370 110 M 370 110 L 390 110 " class="trace" stroke="#795548" /><path d="M 270 150 L 250 150 M 250 150 L 250 130 M 250 130 L 250 110 M 250 110 L 250 90 M 250 90 L 250 70 M 250 70 L 250 50 M 250 50 L 250 30 M 250 30 L 250 10 M 250 10 L 270 10 M 270 10 L 290 10 M 290 10 L 310 10 M 310 10 L 330 10 M 330 10 L 350 10 M 350 10 L 370 10 M 370 10 L 390 10 M 390 10 L 410 10 M 410 10 L 410 30 M 410 30 L 410 50 M 410 50 L 430 50 M 430 50 L 450 50 M 450 50 L 450 70 M 450 70 L 470 70 M 470 70 L 470 90 M 470 90 L 470 110 M 470 110 L 470 130 " class="trace" stroke="#e91e63" /></svg>